<?xml version="1.0" encoding="UTF-8"?>
<!DOCTYPE svg PUBLIC "-//W3C//DTD SVG 1.1//EN" "http://www.w3.org/Graphics/SVG/1.1/DTD/svg11.dtd">
<!-- Creator: CorelDRAW 2017 -->
<svg xmlns="http://www.w3.org/2000/svg" xml:space="preserve" width="11in" height="8.5in" version="1.1" style="shape-rendering:geometricPrecision; text-rendering:geometricPrecision; image-rendering:optimizeQuality; fill-rule:evenodd; clip-rule:evenodd"
viewBox="0 0 11000 8500"
 xmlns:xlink="http://www.w3.org/1999/xlink">
 <defs>
  <style type="text/css">
   <![CDATA[
    .fil2 {fill:#199619;fill-rule:nonzero}
    .fil3 {fill:#20C420;fill-rule:nonzero}
    .fil1 {fill:white;fill-rule:nonzero}
    .fil0 {fill:url(#id0);fill-rule:nonzero}
   ]]>
  </style>
  <linearGradient id="id0" gradientUnits="userSpaceOnUse" x1="3160.04" y1="4608.35" x2="4275.31" y2="5339.06">
   <stop offset="0" style="stop-opacity:1; stop-color:#20C420"/>
   <stop offset="1" style="stop-opacity:1; stop-color:#82D615"/>
  </linearGradient>
 </defs>
 <g id="Layer_x0020_1">
  <metadata id="CorelCorpID_0Corel-Layer"/>
  <g id="_641310944">
   <rect class="fil0" x="3051.01" y="4307.04" width="1333.33" height="1333.33" rx="367.42" ry="367.42"/>
   <path class="fil1" d="M4099.75 4750.24c-1.03,23.9 -21.24,42.44 -45.14,41.41 -23.9,-1.03 -42.44,-21.24 -41.41,-45.14 1.15,-24.8 2.08,-40.95 3.01,-57.17 0.59,-10.15 1.17,-20.33 1.76,-31.3 -141.47,25.38 -322.61,47.07 -451.87,104.61 -32.3,14.37 -61.06,31.31 -77.32,49.75 -53.89,61.11 -77.92,138.23 -73.19,213.5 3.57,56.95 23.61,112.87 59.59,160.05 66.62,-93.66 130.48,-169.64 191.59,-227.92 102.02,-97.29 198.35,-146.83 288.99,-148.61l0.34 0c68.21,-0.98 112.62,46.55 133.24,142.58l-0.02 0c0.78,3.65 1.09,7.46 0.87,11.37l-1.48 25.42c-2.43,41.07 -13.22,99.78 -31.3,153.85 -15.12,45.2 -35.64,88.07 -61.29,117.15 -69.69,79.03 -164.84,122.33 -262.34,128.45 -84.81,5.32 -171.37,-17.48 -244.44,-69.35 -19.53,29.76 -39.34,61.06 -59.42,93.93 -12.46,20.43 -39.13,26.89 -59.57,14.42 -20.43,-12.46 -26.89,-39.13 -14.42,-59.56 23.03,-37.69 45.76,-73.44 68.19,-107.28 -57.89,-65.24 -89.87,-146.31 -95.07,-229.07 -6.12,-97.5 24.92,-197.3 94.57,-276.29 25.19,-28.57 64.55,-52.49 107.19,-71.47 145.82,-64.91 365.29,-93.44 525.82,-120.21l0.01 0.04c2.86,-0.48 5.81,-0.67 8.82,-0.55 23.9,0.94 42.51,21.07 41.57,44.97 -1.59,40.01 -2.94,63.23 -4.26,86.28 -1.06,18.27 -2.11,36.44 -3.02,56.15zm-561.65 496.79c56.81,40.83 124.24,58.8 190.25,54.66 75.27,-4.72 148.76,-38.19 202.61,-99.26 17.55,-19.9 32.57,-52.16 44.32,-87.29 15.57,-46.56 24.83,-96.66 26.89,-131.45l1.13 -19.09c-10.57,-45.82 -25.87,-68.7 -45.87,-68.64 -68.07,1.35 -145.05,42.98 -230.91,124.85 -59.53,56.77 -122.33,132.18 -188.42,226.22z"/>
  </g>
  <path class="fil2" d="M4866.2 5092.35c13.72,0 26.89,-2.32 39.51,-6.97 12.61,-4.65 23.57,-11.29 32.86,-19.92 9.3,-8.63 16.71,-18.81 22.24,-30.54 5.53,-11.73 8.3,-24.67 8.3,-38.84l0 -1.33c0,-14.61 -2.77,-27.78 -8.3,-39.5 -5.54,-11.73 -12.95,-21.91 -22.24,-30.54 -9.3,-8.63 -20.25,-15.27 -32.86,-19.92 -12.62,-4.65 -25.78,-6.97 -39.51,-6.97 -14.16,0 -27.22,2.33 -39.17,6.97 -11.95,4.65 -22.46,11.18 -31.54,19.59 -9.07,8.41 -16.15,18.48 -21.24,30.21 -5.09,11.73 -7.64,24.9 -7.64,39.5l0 1.33c0,14.61 2.66,27.78 7.97,39.5 5.31,11.73 12.39,21.91 21.25,30.54 8.85,8.63 19.36,15.27 31.54,19.92 12.17,4.65 25.12,6.97 38.84,6.97zm-6.64 203.17c-58.43,0 -110.66,-13.83 -156.69,-41.39l29.88 -60.2c18.59,11.51 38.06,20.58 58.43,27.22 20.36,6.64 42.49,9.96 66.39,9.96 35.85,0 63.3,-9.07 82.33,-27.33 19.04,-18.26 28.55,-45.15 28.55,-80.78l0 -27.33c-14.61,19.03 -31.65,34.52 -51.12,46.48 -19.48,11.95 -43.6,17.93 -72.37,17.93 -20.8,0 -40.72,-3.76 -59.76,-11.29 -19.03,-7.52 -35.96,-18.26 -50.79,-32.2 -14.83,-13.94 -26.67,-31.09 -35.52,-51.45 -8.85,-20.36 -13.28,-43.38 -13.28,-69.05l0 -1.33c0,-25.67 4.43,-48.8 13.28,-69.38 8.85,-20.58 20.69,-37.85 35.52,-51.79 14.83,-13.94 31.87,-24.68 51.13,-32.2 19.25,-7.52 39.06,-11.29 59.42,-11.29 29.66,0 54.11,5.87 73.37,17.59 19.25,11.73 35.74,25.78 49.46,42.16l0 -52.45 80.34 0 0 278.85c0,58.43 -14.83,102.47 -44.48,132.12 -15.93,15.94 -35.96,27.78 -60.09,35.52 -24.12,7.75 -52.12,11.62 -83.99,11.62z"/>
  <path id="1" class="fil2" d="M5148.38 4837.4l81 0 0 79.01c11.06,-26.56 26.78,-47.8 47.14,-63.74 20.36,-15.94 46.04,-23.24 77.02,-21.91l0 84.98 -4.65 0c-17.7,0 -33.86,2.87 -48.47,8.63 -14.61,5.75 -27.22,14.39 -37.84,25.89 -10.63,11.51 -18.81,26 -24.57,43.49 -5.76,17.48 -8.63,37.73 -8.63,60.75l0 133.45 -81 0 0 -350.56z"/>
  <path id="2" class="fil2" d="M5662.93 4988.11c-1.33,-12.83 -4.2,-24.9 -8.63,-36.19 -4.43,-11.28 -10.4,-21.02 -17.93,-29.21 -7.53,-8.19 -16.49,-14.72 -26.89,-19.59 -10.4,-4.87 -22.24,-7.3 -35.52,-7.3 -24.79,0 -45.26,8.52 -61.42,25.56 -16.15,17.04 -26,39.28 -29.54,66.72l179.93 0zm-79.67 207.81c-25.23,0 -48.8,-4.43 -70.71,-13.28 -21.91,-8.85 -40.94,-21.25 -57.1,-37.18 -16.15,-15.93 -28.88,-35.08 -38.17,-57.43 -9.3,-22.35 -13.94,-47.03 -13.94,-74.03l0 -1.33c0,-25.23 4.2,-48.91 12.61,-71.04 8.41,-22.13 20.25,-41.5 35.52,-58.09 15.27,-16.6 33.31,-29.66 54.11,-39.17 20.8,-9.52 43.82,-14.28 69.05,-14.28 27.89,0 52.34,5.09 73.37,15.27 21.02,10.18 38.51,23.9 52.45,41.16 13.94,17.26 24.46,37.29 31.54,60.09 7.08,22.8 10.62,46.81 10.62,72.04 0,3.54 -0.11,7.19 -0.33,10.95 -0.22,3.76 -0.56,7.64 -1,11.62l-257.61 0c4.43,28.77 15.82,50.79 34.19,66.06 18.37,15.27 40.61,22.91 66.73,22.91 19.92,0 37.18,-3.54 51.79,-10.62 14.61,-7.08 28.99,-17.48 43.15,-31.2l47.14 41.83c-16.82,19.92 -36.85,35.85 -60.09,47.8 -23.24,11.95 -51.01,17.93 -83.32,17.93z"/>
  <path id="3" class="fil2" d="M6063.94 4988.11c-1.33,-12.83 -4.2,-24.9 -8.63,-36.19 -4.43,-11.28 -10.4,-21.02 -17.93,-29.21 -7.53,-8.19 -16.49,-14.72 -26.89,-19.59 -10.4,-4.87 -22.24,-7.3 -35.52,-7.3 -24.79,0 -45.26,8.52 -61.42,25.56 -16.15,17.04 -26,39.28 -29.54,66.72l179.93 0zm-79.67 207.81c-25.23,0 -48.8,-4.43 -70.71,-13.28 -21.91,-8.85 -40.94,-21.25 -57.1,-37.18 -16.15,-15.93 -28.88,-35.08 -38.17,-57.43 -9.3,-22.35 -13.94,-47.03 -13.94,-74.03l0 -1.33c0,-25.23 4.2,-48.91 12.61,-71.04 8.41,-22.13 20.25,-41.5 35.52,-58.09 15.27,-16.6 33.31,-29.66 54.11,-39.17 20.8,-9.52 43.82,-14.28 69.05,-14.28 27.89,0 52.34,5.09 73.37,15.27 21.02,10.18 38.51,23.9 52.45,41.16 13.94,17.26 24.46,37.29 31.54,60.09 7.08,22.8 10.62,46.81 10.62,72.04 0,3.54 -0.11,7.19 -0.33,10.95 -0.22,3.76 -0.56,7.64 -1,11.62l-257.61 0c4.43,28.77 15.82,50.79 34.19,66.06 18.37,15.27 40.61,22.91 66.73,22.91 19.92,0 37.18,-3.54 51.79,-10.62 14.61,-7.08 28.99,-17.48 43.15,-31.2l47.14 41.83c-16.82,19.92 -36.85,35.85 -60.09,47.8 -23.24,11.95 -51.01,17.93 -83.32,17.93z"/>
  <path id="4" class="fil2" d="M6224.62 4837.4l81 0 0 55c5.75,-8.52 12.06,-16.38 18.92,-23.79 6.75,-7.3 14.72,-13.94 23.79,-19.7 9.07,-5.86 18.92,-10.4 29.77,-13.83 10.84,-3.32 23.13,-4.98 36.74,-4.98 39.72,0 70.38,12.17 92.07,36.52 21.58,24.35 32.42,57.1 32.42,98.26l0 223.08 -81 0 0 -198.74c0,-27.33 -6.42,-48.46 -19.37,-63.18 -12.94,-14.83 -31.31,-22.24 -55,-22.24 -23.24,0 -42.16,7.63 -56.65,22.91 -14.5,15.16 -21.69,36.52 -21.69,63.85l0 197.41 -81 0 0 -350.56z"/>
  <path id="5" class="fil2" d="M6707.97 5296.18c-16.82,0 -31.76,-1.88 -44.81,-5.64 -13.06,-3.76 -25.78,-8.96 -38.18,-15.6l27.22 -59.76c7.52,3.98 15.16,7.19 22.91,9.63 7.75,2.43 15.82,3.65 24.23,3.65 11.51,0 21.03,-2.88 28.55,-8.63 7.52,-5.76 14.61,-16.38 21.24,-31.87l-146.06 -350.56 85.65 0 99.59 260.26 90.96 -260.26 83.66 0 -139.43 360.52c-7.08,18.15 -14.39,33.42 -21.91,45.81 -7.52,12.39 -15.93,22.46 -25.23,30.21 -9.3,7.74 -19.48,13.39 -30.54,16.93 -11.06,3.54 -23.68,5.31 -37.84,5.31z"/>
  <polygon id="6" class="fil3" points="7026.66,5097 7114.96,5097 7114.96,5187.96 7026.66,5187.96 "/>
  <path id="7" class="fil3" d="M7210.57 4837.4l81 0 0 55c5.75,-8.52 12.06,-16.38 18.92,-23.79 6.75,-7.3 14.72,-13.94 23.79,-19.7 9.07,-5.86 18.92,-10.4 29.77,-13.83 10.84,-3.32 23.13,-4.98 36.74,-4.98 39.72,0 70.38,12.17 92.07,36.52 21.58,24.35 32.42,57.1 32.42,98.26l0 223.08 -81 0 0 -198.74c0,-27.33 -6.42,-48.46 -19.37,-63.18 -12.94,-14.83 -31.31,-22.24 -55,-22.24 -23.24,0 -42.16,7.63 -56.65,22.91 -14.5,15.16 -21.69,36.52 -21.69,63.85l0 197.41 -81 0 0 -350.56z"/>
  <path id="8" class="fil3" d="M7784.87 5092.35c13.72,0 26.89,-2.32 39.51,-6.97 12.61,-4.65 23.57,-11.29 32.86,-19.92 9.3,-8.63 16.71,-18.81 22.24,-30.54 5.53,-11.73 8.3,-24.67 8.3,-38.84l0 -1.33c0,-14.61 -2.77,-27.78 -8.3,-39.5 -5.54,-11.73 -12.95,-21.91 -22.24,-30.54 -9.3,-8.63 -20.25,-15.27 -32.86,-19.92 -12.62,-4.65 -25.78,-6.97 -39.51,-6.97 -14.16,0 -27.22,2.33 -39.17,6.97 -11.95,4.65 -22.46,11.18 -31.54,19.59 -9.07,8.41 -16.15,18.48 -21.24,30.21 -5.09,11.73 -7.64,24.9 -7.64,39.5l0 1.33c0,14.61 2.66,27.78 7.97,39.5 5.31,11.73 12.39,21.91 21.25,30.54 8.85,8.63 19.36,15.27 31.54,19.92 12.17,4.65 25.12,6.97 38.84,6.97zm-6.64 203.17c-58.43,0 -110.66,-13.83 -156.69,-41.39l29.88 -60.2c18.59,11.51 38.06,20.58 58.43,27.22 20.36,6.64 42.49,9.96 66.39,9.96 35.85,0 63.3,-9.07 82.33,-27.33 19.04,-18.26 28.55,-45.15 28.55,-80.78l0 -27.33c-14.61,19.03 -31.65,34.52 -51.12,46.48 -19.48,11.95 -43.6,17.93 -72.37,17.93 -20.8,0 -40.72,-3.76 -59.76,-11.29 -19.03,-7.52 -35.96,-18.26 -50.79,-32.2 -14.83,-13.94 -26.67,-31.09 -35.52,-51.45 -8.85,-20.36 -13.28,-43.38 -13.28,-69.05l0 -1.33c0,-25.67 4.43,-48.8 13.28,-69.38 8.85,-20.58 20.69,-37.85 35.52,-51.79 14.83,-13.94 31.87,-24.68 51.13,-32.2 19.25,-7.52 39.06,-11.29 59.42,-11.29 29.66,0 54.11,5.87 73.37,17.59 19.25,11.73 35.74,25.78 49.46,42.16l0 -52.45 80.34 0 0 278.85c0,58.43 -14.83,102.47 -44.48,132.12 -15.93,15.94 -35.96,27.78 -60.09,35.52 -24.12,7.75 -52.12,11.62 -83.99,11.62z"/>
 </g>
</svg>
